# xmcd
# 
# Track frame offsets:
#     150
#     16885
#     38270
#     48508
#     63545
#     81756
#     104562
#     115529
#     128569
#     140784
#     165739
#     185526
#     206571
#     221196
#     238728
# 
# Disc length: 3435
# 
# Revision: 2
# Processed by: cddbd v1.5.2PL0 Copyright (c) Steve Scherf et al.
# Submitted via: fre:ac v1.0.31
# 
DISCID=d30d690f
DTITLE=Paul Daraîche - Mes amours, mes amis
DYEAR=2012
DGENRE=Country Québécois
TTITLE0=Mon amour, mon amie (Duet with Lynda Lemay)
TTITLE1=Confidences (Duet with )
TTITLE2=Le lumberjack (Duet with Richard Desjardins)
TTITLE3=Quand les blés seront levés (Duet with Dick Rivers)
TTITLE4=À ma mère (Perce les nuages) (Duet with Isabelle Boulay, Roch Voisine)
TTITLE5=Rosalie (Duet with Mario Pelchat)
TTITLE6=Le chasseur (Duet with Yves Lambert)
TTITLE7=Stewball (Duet with Hugues Aufray)
TTITLE8=C'est comme ça en Acadie (Duet with Edith Butler)
TTITLE9=Dis papa (Duet with Maxime Landry)
TTITLE10=Je pars à l'autre bout du monde (Duet with Laurence Jalbert)
TTITLE11=Six heures moins quart (Duet with Patrick Norman)
TTITLE12=T'envoler (Duet with Luce Dufault)
TTITLE13=Tout de moi pour toi (Duet with Cindy Daniel)
TTITLE14=A mia mare (Duet with Marc Hervieux)
EXTD=JB Team
EXTT0=
EXTT1=
EXTT2=
EXTT3=
EXTT4=
EXTT5=
EXTT6=
EXTT7=
EXTT8=
EXTT9=
EXTT10=
EXTT11=
EXTT12=
EXTT13=
EXTT14=
PLAYORDER=
